<svg width="1180" height="183" viewBox="0 0 1180 183" fill="none" xmlns="http://www.w3.org/2000/svg">
<path d="M744.691 111.655C744.691 142.881 730.498 142.881 722.928 142.881C716.305 142.881 701.165 142.881 701.165 111.655V24.6005H665.207V117.332C665.207 153.29 688.863 177.891 722.928 177.891C756.993 177.891 780.649 153.281 780.649 117.332V24.6005H744.691V111.655Z" fill="#1B1B1B"/>
<path d="M1099.53 20.817C1078.2 20.817 1057.74 29.2909 1042.66 44.3746C1027.57 59.4582 1019.1 79.916 1019.1 101.247C1019.1 122.579 1027.57 143.037 1042.66 158.12C1057.74 173.204 1078.2 181.678 1099.53 181.678C1144.95 181.678 1179.96 146.668 1179.96 101.248C1179.97 90.6835 1177.89 80.2206 1173.86 70.4583C1169.82 60.6959 1163.89 51.8257 1156.42 44.3552C1148.95 36.8846 1140.08 30.9604 1130.32 26.9215C1120.56 22.8826 1110.09 20.8082 1099.53 20.817V20.817ZM1099.53 144.775C1088.03 144.644 1077.03 140.017 1068.9 131.882C1060.76 123.747 1056.13 112.752 1056 101.248C1056 89.7042 1060.59 78.633 1068.75 70.4701C1076.92 62.3072 1087.99 57.7213 1099.53 57.7213C1111.07 57.7213 1122.15 62.3072 1130.31 70.4701C1138.47 78.633 1143.06 89.7042 1143.06 101.248C1143.07 106.969 1141.96 112.636 1139.78 117.923C1137.59 123.211 1134.39 128.016 1130.34 132.06C1126.3 136.105 1121.49 139.311 1116.2 141.493C1110.92 143.675 1105.25 144.79 1099.53 144.775V144.775Z" fill="#1B1B1B"/>
<path d="M80.4296 0L0 176.947H40.6876L55.8279 142.882H105.033L120.173 176.947H160.861L80.4296 0ZM65.291 112.6L80.4313 75.6964L95.5749 112.6H65.291Z" fill="#1B1B1B"/>
<path d="M255.477 25.5497H196.817V174.109H233.721V131.528H253.591C290.494 131.528 313.205 110.711 313.205 78.539C313.205 45.4215 291.442 25.5497 255.477 25.5497ZM275.349 79.4897C275.349 91.7947 266.833 99.3615 252.639 99.3615H233.721V58.6688H252.645C267.786 58.6688 275.356 66.239 275.356 79.4863L275.349 79.4897Z" fill="#1B1B1B"/>
<path d="M408.77 25.5497H350.11V174.109H387.013V131.528H406.885C443.789 131.528 466.499 110.711 466.499 78.539C465.552 45.4215 443.787 25.5497 408.77 25.5497ZM428.642 79.4897C428.642 91.7947 420.126 99.3615 405.931 99.3615H387.013V58.6688H405.938C420.131 58.6688 428.648 66.239 428.648 79.4863L428.642 79.4897Z" fill="#1B1B1B"/>
<path d="M575.314 72.8596C545.984 65.2894 540.303 61.5052 540.303 52.0421V51.0965C540.303 42.5807 547.873 37.8492 561.121 37.8492C574.368 37.8492 588.561 43.5263 604.647 53.9351L605.593 54.8807L626.41 24.6018L625.464 23.6562C607.427 9.39327 585.061 1.71602 562.066 1.89478C526.11 1.89478 501.507 23.6579 501.507 53.9384V54.8841C501.507 90.8418 526.117 99.3576 558.282 107.873C586.67 115.444 591.4 120.178 591.4 127.745V128.691C591.4 138.154 582.884 142.884 568.689 142.884C551.664 142.884 535.57 136.259 519.484 123.012L518.538 122.066L494.884 150.454L495.83 151.4C515.825 169.345 541.825 179.137 568.691 178.84C607.487 178.84 632.089 158.022 632.089 124.9C630.196 93.6804 608.433 81.3787 575.314 72.8596Z" fill="#1B1B1B"/>
<path d="M903.66 182.624L859.186 106.925L845.939 176.946H813.767L846.886 20.817L905.546 119.225L961.38 20.817L994.498 176.946H960.435L947.187 107.871L903.66 182.624Z" fill="#1B1B1B"/>
</svg>
